
<svg version="1.0" xmlns="http://www.w3.org/2000/svg"
    viewBox="0 0 3940 3965" >

    <g transform="translate(0.000000,3965.000000) scale(0.100000,-0.100000)"
        fill="#000000" stroke="none">
        <path id="circle"
            d="M19035 39639 c-3287 -106 -6468 -1023 -9308 -2686 -2939 -1720 -5436
-4242 -7124 -7193 -1900 -3323 -2780 -7049 -2573 -10890 169 -3121 1083 -6157
2670 -8865 1705 -2909 4186 -5378 7100 -7067 3413 -1978 7279 -2874 11245
-2607 4118 277 8045 1851 11225 4498 479 399 841 731 1331 1220 488 489 831
862 1221 1332 1432 1723 2534 3626 3321 5739 974 2612 1374 5443 1172 8285
-267 3734 -1604 7323 -3847 10327 -1640 2196 -3721 4031 -6088 5370 -608 344
-1311 692 -1950 965 -2654 1134 -5492 1666 -8395 1572z m650 -1745 c9 -89 9
-89 -78 -99 -33 -3 -77 -13 -98 -22 -32 -12 -40 -21 -46 -51 -8 -45 54 -1237
68 -1286 14 -51 41 -64 145 -72 l92 -7 4 -71 c3 -39 2 -74 -1 -78 -6 -7 -676
-48 -777 -48 l-44 0 0 78 0 78 96 16 c107 18 130 32 136 86 5 34 -20 574 -26
580 -3 2 -809 -39 -813 -42 -4 -3 27 -519 33 -565 11 -74 26 -81 204 -94 l35
-2 6 -75 c3 -41 5 -77 3 -78 -6 -8 -794 -46 -800 -39 -4 4 -9 40 -12 82 -5 73
-4 75 18 75 63 0 155 24 177 46 30 30 30 29 -7 709 -32 583 -35 625 -54 651
-14 19 -79 33 -158 34 -31 0 -59 4 -62 8 -2 4 -6 41 -7 82 l-2 75 394 21 c217
12 397 20 402 17 4 -2 7 -39 7 -82 l0 -78 -52 -7 c-76 -10 -125 -24 -143 -42
-11 -12 -15 -37 -15 -102 0 -83 18 -424 23 -428 4 -3 807 43 810 47 8 9 -22
462 -33 494 -14 42 -24 46 -135 54 l-90 6 -3 83 -3 82 48 1 c26 0 181 9 343
18 162 10 320 19 352 20 l56 1 7 -76z m1575 13 c0 -14 286 -1025 382 -1347 86
-293 98 -311 220 -340 l73 -17 -2 -69 c-2 -38 -5 -74 -7 -79 -2 -7 -128 -1
-377 20 l-374 30 4 75 c2 41 4 76 5 77 2 2 25 5 52 8 112 13 114 14 114 43 0
15 -23 111 -52 213 l-52 186 -225 17 c-124 9 -238 19 -252 22 -25 5 -29 -1
-84 -123 -77 -170 -106 -249 -99 -268 6 -15 71 -37 147 -51 l38 -7 -6 -76 c-4
-42 -9 -77 -10 -79 -2 -2 -145 8 -319 22 -173 14 -322 26 -331 26 -11 0 -15
12 -15 49 0 27 3 62 6 79 6 29 9 30 73 37 100 10 144 34 185 98 19 29 190 360
380 734 191 374 352 687 359 696 20 29 167 49 167 24z m-4090 -155 l55 -7 72
-215 c40 -118 73 -220 73 -226 0 -7 -17 -19 -37 -27 -21 -9 -55 -23 -75 -31
l-38 -16 -31 62 c-69 138 -148 211 -263 244 -90 25 -264 16 -371 -20 -196 -67
-322 -193 -392 -391 -26 -75 -28 -89 -27 -245 0 -151 2 -173 28 -254 45 -148
108 -259 201 -352 44 -44 103 -93 130 -108 184 -101 413 -110 591 -21 126 62
209 174 282 380 32 89 24 86 131 64 l54 -11 -6 -71 c-9 -99 -45 -308 -65 -375
l-17 -55 -80 -34 c-115 -49 -327 -119 -420 -139 -120 -25 -340 -30 -452 -10
-204 35 -349 110 -494 255 -179 180 -259 373 -259 631 0 247 75 432 247 611
189 196 447 319 753 358 78 10 333 12 410 3z m6078 -161 c326 -65 595 -121
598 -124 4 -3 -1 -55 -9 -114 -9 -59 -21 -163 -28 -230 l-13 -123 -52 0 c-28
0 -65 3 -81 6 -30 6 -30 6 -36 92 -6 86 -24 156 -52 198 -21 32 -108 61 -292
98 l-162 33 -11 -51 c-96 -469 -107 -536 -91 -540 63 -18 296 -58 344 -59 67
-2 81 9 118 101 12 28 27 52 33 52 24 0 131 -23 138 -29 7 -6 -99 -568 -108
-580 -3 -3 -110 15 -144 24 -11 4 -15 21 -15 72 0 102 -8 121 -60 144 -37 16
-314 79 -350 79 -16 0 -105 -444 -105 -522 0 -56 1 -58 38 -77 20 -10 70 -29
110 -41 39 -12 74 -25 76 -29 4 -6 -21 -141 -28 -148 -4 -4 -795 155 -807 162
-5 4 -8 14 -5 23 2 10 10 42 16 73 l11 56 106 -1 107 -1 17 30 c20 34 247
1129 256 1238 8 86 -3 99 -112 132 l-82 25 13 68 c19 92 20 93 46 87 13 -3
290 -59 616 -124z m1190 -233 c11 -27 24 -41 51 -51 47 -19 1103 -347 1116
-347 6 0 26 9 46 19 34 18 39 18 93 3 50 -14 57 -18 51 -36 -3 -12 -35 -133
-69 -271 l-63 -250 -31 3 c-18 2 -53 9 -78 15 l-47 12 2 113 c4 205 -15 228
-251 303 l-118 37 -39 -127 c-266 -850 -343 -1103 -348 -1144 -9 -70 12 -88
189 -160 l37 -16 -26 -76 c-19 -57 -29 -75 -40 -71 -8 3 -191 61 -406 127
-216 67 -396 125 -400 129 -11 10 32 150 46 150 7 -1 39 -7 72 -15 63 -15 132
-19 160 -9 9 4 24 23 34 43 21 40 403 1262 397 1268 -9 10 -247 74 -293 80
-74 8 -112 -19 -193 -138 -35 -52 -65 -96 -67 -98 -3 -5 -124 27 -141 38 -10
6 3 48 51 172 35 90 81 209 101 265 l37 101 56 -16 c50 -13 58 -19 71 -53z
m-9197 -214 c46 -108 85 -200 87 -203 1 -4 -31 -23 -71 -43 l-73 -36 -32 53
c-48 80 -126 160 -184 189 -122 61 -297 6 -349 -108 -21 -47 -24 -144 -6 -191
48 -124 130 -167 411 -220 322 -60 467 -140 554 -303 199 -374 -112 -790 -619
-828 -92 -7 -233 9 -257 29 -13 10 -189 361 -205 409 -4 12 11 27 59 57 36 23
68 41 72 41 4 0 23 -26 42 -57 53 -86 158 -186 234 -223 145 -72 328 -37 406
77 33 48 40 158 15 233 -34 104 -120 160 -315 205 -63 15 -162 38 -220 51
-219 51 -354 146 -428 301 -37 77 -37 79 -37 203 0 124 0 126 38 204 69 145
214 262 394 316 101 30 152 37 284 39 l116 1 84 -196z m-1558 -241 c9 -21 22
-55 31 -75 l16 -37 -70 -37 c-38 -20 -81 -47 -96 -61 -22 -21 -25 -29 -19 -61
6 -37 435 -1074 481 -1165 33 -65 55 -71 151 -46 116 31 110 33 143 -43 28
-66 29 -68 10 -78 -35 -19 -715 -302 -728 -304 -11 -1 -78 132 -70 139 2 1 37
21 78 45 99 55 110 66 110 108 0 30 -198 532 -219 555 -8 8 -744 -297 -748
-310 -3 -9 170 -431 205 -500 42 -82 56 -86 181 -49 92 26 83 30 122 -61 l26
-61 -361 -151 c-198 -82 -367 -151 -374 -153 -8 -2 -25 25 -42 65 -17 38 -30
71 -30 72 0 2 31 20 69 40 38 20 79 47 92 61 22 23 22 27 10 72 -14 54 -452
1108 -484 1165 -31 56 -63 58 -208 13 l-46 -14 -31 74 c-17 40 -27 76 -23 79
6 3 620 262 718 302 8 3 22 -17 37 -50 43 -97 45 -89 -44 -141 -84 -49 -99
-70 -85 -123 3 -16 45 -121 92 -236 76 -183 88 -207 105 -201 26 8 730 302
734 307 5 5 -171 420 -191 451 -25 38 -54 41 -150 13 l-87 -25 -29 64 c-16 35
-29 69 -29 76 0 10 700 313 731 317 4 1 14 -16 22 -36z m12932 -308 c119 -32
245 -105 403 -232 l23 -19 -57 -204 c-32 -113 -60 -209 -64 -213 -4 -4 -40 0
-81 10 -63 16 -74 21 -72 38 6 48 4 224 -3 251 -29 120 -139 204 -270 204
-127 0 -223 -105 -224 -246 0 -81 43 -169 140 -284 215 -255 280 -362 300
-492 28 -183 -76 -395 -241 -491 -164 -96 -386 -101 -592 -12 -119 51 -182 92
-275 181 l-85 82 6 53 c8 61 91 406 100 416 4 3 41 2 84 -3 l77 -9 -3 -126
c-3 -180 25 -281 105 -369 79 -87 236 -125 329 -80 87 42 154 169 142 271 -10
86 -71 183 -237 381 -195 231 -241 438 -143 638 64 132 184 228 331 265 70 18
221 13 307 -10z m1230 -602 c182 -97 361 -196 399 -220 304 -195 370 -473 174
-730 -77 -101 -206 -165 -363 -179 l-75 -7 0 -61 c0 -165 42 -503 81 -644 24
-92 42 -127 87 -174 l35 -37 -42 -56 c-32 -42 -48 -56 -62 -52 -38 10 -175
104 -239 164 -137 128 -164 226 -190 677 -7 114 -17 203 -25 223 -13 30 -107
103 -134 103 -16 0 -223 -399 -228 -441 -7 -47 10 -70 100 -130 31 -22 57 -42
57 -45 0 -3 -16 -35 -36 -70 l-36 -64 -31 16 c-73 38 -634 338 -655 351 l-23
14 37 69 38 69 35 -16 c20 -8 62 -24 94 -34 67 -22 94 -15 126 30 31 43 568
1048 588 1099 24 63 11 87 -74 145 l-72 49 35 70 c28 55 39 68 52 63 9 -3 166
-85 347 -182z m-16378 -260 c60 -76 126 -160 146 -187 l37 -49 -22 -25 c-13
-13 -40 -37 -61 -54 l-37 -30 -60 55 c-33 31 -90 70 -127 89 -64 31 -74 33
-173 33 -93 0 -113 -4 -173 -29 -163 -68 -299 -189 -361 -319 -47 -99 -61
-165 -60 -282 2 -222 103 -437 289 -613 92 -87 204 -151 315 -178 95 -24 252
-15 348 19 269 94 381 267 382 588 0 121 -8 112 102 125 49 6 57 4 61 -12 28
-92 77 -375 77 -441 0 -38 -5 -46 -72 -109 -237 -219 -451 -348 -686 -411 -84
-23 -118 -27 -247 -27 -126 -1 -162 3 -228 22 -255 73 -450 234 -565 467 -120
241 -131 485 -33 730 102 255 344 496 641 637 76 37 358 137 387 138 6 0 60
-62 120 -137z m18769 -1172 c-13 -43 -245 -905 -322 -1191 -119 -450 -120
-485 -20 -578 25 -23 46 -45 46 -48 0 -6 -62 -95 -80 -117 -5 -6 -571 386
-619 429 -5 4 81 124 90 124 4 0 36 -13 71 -30 67 -32 83 -36 93 -21 13 22
113 407 107 412 -4 4 -97 71 -206 149 l-199 142 -96 -66 c-156 -108 -236 -170
-239 -189 -2 -11 21 -43 61 -84 l64 -66 -44 -63 -45 -62 -267 190 c-146 105
-269 193 -273 197 -4 3 13 34 38 68 l44 62 63 -29 c92 -42 123 -45 187 -21 30
12 359 211 730 444 l675 423 73 -29 c55 -23 71 -34 68 -46z m-20776 -406 c512
-330 833 -532 899 -567 74 -39 122 -37 206 8 37 19 68 34 70 32 89 -120 88
-119 74 -132 -32 -30 -579 -436 -588 -436 -9 0 -91 104 -91 116 0 4 23 31 50
60 54 57 59 73 33 96 -51 43 -336 218 -346 211 -18 -10 -370 -274 -385 -287
-10 -10 0 -49 48 -198 33 -102 66 -191 75 -198 20 -16 60 -6 127 35 l57 34 41
-55 c22 -30 43 -60 45 -66 4 -11 -494 -392 -523 -400 -6 -2 -31 24 -55 57
l-45 60 52 55 c63 66 81 112 72 184 -4 28 -94 392 -201 808 -107 416 -195 762
-195 768 0 7 21 38 48 69 l47 58 50 -32 c28 -18 223 -144 435 -280z m10635
305 c460 -15 846 -42 1265 -91 3950 -457 7544 -2535 9947 -5749 1656 -2216
2639 -4850 2838 -7605 48 -672 48 -1428 0 -2100 -169 -2329 -898 -4574 -2134
-6570 -229 -371 -555 -840 -832 -1201 -571 -743 -1261 -1477 -1975 -2100
-1195 -1045 -2567 -1893 -4038 -2498 -1224 -504 -2569 -847 -3881 -990 -547
-60 -836 -76 -1435 -83 -654 -7 -1069 11 -1667 72 -3995 410 -7662 2492
-10097 5733 -926 1234 -1644 2593 -2141 4052 -805 2369 -976 4963 -489 7435
451 2287 1443 4417 2909 6250 555 694 1210 1371 1898 1961 1560 1340 3418
2347 5387 2918 1446 419 2962 612 4445 566z m11048 -539 c39 -36 42 -43 39
-79 l-4 -40 437 -388 c240 -214 448 -395 462 -402 14 -8 38 -11 57 -8 26 5 38
0 78 -34 l47 -41 -77 -92 c-43 -51 -120 -147 -171 -214 -52 -68 -98 -123 -103
-123 -13 0 -123 79 -123 88 0 4 17 40 38 80 52 100 72 182 57 228 -12 35 -103
133 -200 214 l-48 40 -424 -477 c-233 -263 -434 -492 -446 -510 -26 -37 -28
-79 -6 -113 9 -14 44 -53 76 -86 l60 -61 -55 -59 -55 -59 -24 21 c-12 11 -149
132 -303 269 -154 136 -290 258 -302 269 l-21 21 53 58 54 59 52 -42 c65 -51
120 -80 153 -80 14 0 42 14 62 32 29 26 350 383 858 957 l21 23 -55 50 c-73
66 -157 131 -197 152 -61 31 -110 17 -249 -70 -83 -52 -74 -53 -151 20 l-42
39 197 197 c108 108 200 197 205 198 4 1 27 -16 50 -37z m-22869 -347 c88 -86
162 -160 164 -165 2 -4 -18 -35 -44 -67 l-47 -59 -75 48 c-96 63 -170 86 -223
70 -43 -13 -142 -90 -264 -204 l-80 -75 21 -23 c122 -139 377 -419 381 -419
10 0 229 203 261 242 17 23 32 52 32 66 0 14 -16 53 -35 87 l-34 62 37 34 c87
81 55 98 276 -146 108 -119 196 -220 196 -225 0 -11 -101 -100 -113 -100 -5 0
-26 13 -46 29 -85 66 -123 72 -185 28 -48 -34 -251 -218 -251 -228 0 -16 346
-389 375 -404 28 -15 34 -14 73 3 23 11 69 40 102 65 l60 47 52 -58 c29 -31
53 -59 52 -62 0 -3 -139 -129 -307 -280 l-307 -275 -54 58 -53 59 39 42 c93
97 101 126 56 193 -47 69 -819 917 -853 936 -41 25 -65 18 -144 -42 l-65 -49
-50 58 c-28 32 -51 61 -51 63 0 7 929 847 937 847 3 0 78 -70 167 -156z
m-1835 -1378 c50 -50 53 -57 40 -74 -8 -11 -90 -104 -183 -208 -905 -1011
-1757 -2226 -2416 -3448 -505 -937 -957 -1996 -1271 -2981 -580 -1815 -869
-3650 -869 -5525 0 -646 30 -1192 106 -1972 8 -77 10 -75 -101 -80 l-60 -3
-17 165 c-108 1047 -126 2135 -53 3175 103 1447 373 2841 825 4268 112 353
109 347 275 792 743 1997 1851 3861 3284 5525 169 197 371 420 380 420 4 0 31
-24 60 -54z m26627 -24 c965 -1059 1855 -2312 2542 -3577 1687 -3107 2426
-6660 2122 -10195 -24 -273 -47 -490 -53 -497 -5 -4 -157 13 -162 19 -1 1 8
107 21 233 99 972 116 2050 48 3040 -175 2550 -899 5054 -2108 7290 -667 1234
-1493 2408 -2439 3468 l-169 188 59 54 c32 30 60 54 63 55 3 0 37 -35 76 -78z
m-25887 -669 c-1 -4 -67 -82 -148 -173 -899 -1008 -1680 -2116 -2302 -3267
-663 -1225 -1166 -2503 -1508 -3834 -290 -1124 -450 -2165 -523 -3399 -17
-289 -17 -1450 0 -1740 17 -282 48 -683 70 -893 10 -93 15 -170 12 -172 -3 -2
-41 -7 -83 -11 -91 -8 -79 -36 -107 251 -62 649 -75 945 -75 1695 0 654 5 818
41 1290 140 1874 590 3722 1327 5450 747 1753 1829 3436 3116 4847 l65 71 58
-54 c32 -29 58 -57 57 -61z m25258 -35 c1449 -1610 2600 -3507 3341 -5503 176
-476 261 -733 396 -1195 548 -1886 772 -3877 656 -5820 -21 -353 -73 -926 -85
-938 -6 -7 -154 9 -159 16 -2 4 6 111 19 237 91 897 108 1882 49 2790 -123
1912 -574 3815 -1319 5565 -712 1671 -1705 3244 -2915 4614 -96 109 -190 215
-208 236 l-32 38 57 51 c32 28 61 51 65 51 4 0 64 -64 135 -142z m-24567 -598
c0 -4 -64 -79 -142 -167 -1352 -1515 -2414 -3269 -3097 -5113 -161 -433 -167
-450 -247 -705 -449 -1434 -683 -2742 -755 -4230 -14 -292 -14 -1102 0 -1390
16 -321 40 -649 66 -905 12 -124 22 -226 20 -228 -4 -5 -159 -22 -163 -18 -7
7 -49 448 -66 691 -52 734 -52 1573 -1 2305 126 1791 563 3596 1265 5235 702
1638 1684 3172 2878 4498 l124 137 59 -51 c32 -28 59 -54 59 -59z m23892 -52
c1219 -1369 2178 -2879 2876 -4523 597 -1406 996 -2922 1176 -4465 49 -416 78
-803 97 -1275 13 -325 7 -1173 -11 -1455 -28 -456 -74 -968 -88 -982 -6 -6
-151 7 -159 15 -2 2 6 91 16 198 61 594 76 924 76 1629 0 603 -6 799 -40 1235
-97 1239 -325 2415 -705 3630 -664 2122 -1822 4150 -3347 5862 l-162 182 60
55 c33 31 61 56 63 56 2 0 68 -73 148 -162z m3973 -13827 c64 -16 70 -20 67
-42 -1 -13 -4 -56 -5 -95 -2 -59 1 -76 17 -93 32 -35 230 -92 895 -257 344
-85 626 -156 627 -157 6 -6 -30 -133 -40 -143 -6 -6 -343 -179 -749 -385 -405
-205 -734 -376 -730 -380 7 -6 597 -153 718 -178 101 -22 226 -38 252 -33 45
8 71 40 105 129 17 46 34 83 37 83 27 -1 146 -39 145 -46 -5 -33 -168 -680
-173 -685 -3 -4 -37 1 -76 10 l-70 16 4 98 c3 91 2 100 -19 122 -45 47 -180
90 -721 225 -476 119 -479 119 -542 90 -58 -27 -88 -65 -117 -145 -13 -33 -25
-63 -29 -67 -9 -10 -144 26 -149 40 -5 17 98 435 112 448 6 6 330 177 720 380
l709 368 -274 68 c-339 83 -538 126 -629 134 -68 7 -70 6 -98 -23 -15 -17 -40
-67 -56 -112 -18 -50 -34 -81 -43 -81 -29 0 -143 33 -143 41 0 8 131 539 161
652 5 20 13 37 17 37 4 0 39 -9 77 -19z m-31951 -403 c68 -228 187 -641 184
-642 -2 -2 -36 -12 -76 -23 l-73 -21 -40 79 c-21 43 -44 79 -50 79 -25 0 -90
-41 -578 -363 -167 -111 -300 -202 -295 -203 11 -3 752 -34 1028 -42 l208 -7
19 -60 c26 -82 24 -89 -18 -117 -47 -31 -531 -384 -787 -573 l-189 -140 109
-8 c131 -10 856 -1 899 11 l30 9 -2 104 -2 105 75 20 74 21 20 -66 c96 -325
169 -585 166 -588 -4 -4 -137 -43 -148 -43 -3 0 -14 21 -24 46 -31 81 -67 121
-125 138 -88 26 -512 47 -1287 62 -188 4 -345 11 -348 16 -3 5 -14 37 -24 73
-17 59 -17 65 -2 78 10 8 195 145 412 304 576 422 581 425 577 430 -4 4 -176
13 -921 48 -175 8 -320 16 -321 17 -2 2 -12 35 -23 74 l-20 72 322 215 c537
359 969 657 1008 695 48 46 62 88 53 159 -4 31 -9 62 -12 69 -3 8 17 19 59 33
96 30 93 32 122 -61z m31584 -1860 c123 -37 142 -45 141 -63 -1 -33 -33 -140
-42 -139 -57 10 -184 13 -226 4 -67 -13 -81 -25 -119 -103 -31 -63 -132 -326
-132 -343 0 -10 527 -211 534 -203 12 14 108 289 112 324 8 56 -5 77 -76 121
-33 20 -60 38 -60 40 0 16 54 144 61 144 11 0 541 -198 547 -205 2 -2 -8 -36
-23 -75 l-27 -71 -89 7 c-103 8 -113 3 -149 -73 -26 -55 -112 -285 -108 -288
11 -9 478 -178 504 -182 65 -11 80 1 123 90 49 101 110 280 118 346 8 71 -23
127 -130 238 l-89 92 38 70 38 70 35 -21 c177 -106 390 -250 391 -263 0 -5
-104 -286 -231 -625 -128 -338 -236 -625 -240 -638 l-9 -22 -65 25 c-37 13
-70 27 -75 30 -5 3 0 36 11 73 11 37 21 88 22 113 2 56 -14 79 -81 107 -116
50 -1093 413 -1140 423 -47 11 -54 11 -73 -7 -12 -10 -37 -50 -56 -89 -20 -38
-36 -71 -38 -73 -6 -7 -145 51 -145 61 0 12 426 1151 441 1178 8 16 14 16 86
-7 43 -13 142 -43 221 -66z m-30556 -1210 c75 -172 148 -339 162 -371 l26 -57
-57 -25 c-96 -43 -95 -43 -125 17 -14 30 -38 69 -54 87 -25 30 -31 33 -73 29
-31 -3 -220 -81 -585 -241 -296 -130 -558 -248 -582 -262 -57 -34 -63 -59 -35
-149 34 -107 35 -103 -42 -137 -38 -17 -70 -29 -72 -27 -1 2 -73 165 -160 363
-87 198 -159 363 -162 367 -3 7 120 68 137 68 4 0 28 -36 54 -80 57 -98 75
-109 146 -86 58 19 1012 437 1107 485 92 46 97 63 51 199 -14 38 -18 66 -12
71 8 8 122 60 134 61 3 0 67 -141 142 -312z m29719 -281 c63 -30 175 -80 250
-112 l136 -57 -28 -72 c-32 -82 -25 -79 -158 -51 -88 18 -164 16 -199 -6 -11
-7 -38 -40 -60 -73 -44 -67 -126 -226 -119 -232 6 -6 845 -438 1021 -525 182
-91 212 -96 257 -48 16 17 45 58 65 92 21 34 39 64 41 66 7 9 144 -63 141 -74
-3 -11 -373 -732 -387 -753 -6 -11 -23 -6 -78 22 l-71 35 34 83 c19 48 34 101
34 125 0 36 -5 46 -32 66 -18 14 -292 158 -608 320 l-575 296 -64 -129 c-72
-145 -85 -205 -57 -258 9 -18 54 -69 101 -114 l83 -82 -28 -55 c-16 -31 -33
-62 -38 -70 -8 -10 -53 13 -208 106 -110 66 -218 130 -241 143 -24 13 -43 28
-43 32 0 5 11 31 25 58 20 39 31 50 50 50 13 0 35 10 48 23 30 27 536 1008
544 1054 3 17 0 46 -6 63 -9 27 -7 39 14 81 14 27 29 49 34 49 4 0 59 -24 122
-53z m-29204 -805 c105 -191 201 -367 214 -392 40 -82 70 -184 76 -260 10
-141 -26 -240 -126 -341 -167 -167 -407 -193 -610 -65 -22 14 -45 26 -50 26
-26 0 -261 -469 -312 -620 -27 -81 -31 -105 -26 -165 2 -38 6 -76 8 -84 3 -9
-19 -21 -65 -37 -82 -28 -75 -34 -137 106 -55 124 -69 179 -69 271 0 132 42
234 229 564 104 181 108 200 65 296 -15 33 -28 59 -30 59 -14 0 -395 -220
-421 -243 -41 -36 -42 -58 -2 -153 17 -40 29 -78 27 -84 -2 -6 -31 -27 -65
-46 l-62 -35 -14 23 c-36 57 -378 680 -375 682 1 2 33 20 69 40 l67 37 21 -34
c34 -55 81 -111 104 -124 25 -14 55 -8 112 19 142 70 1045 579 1073 605 40 38
39 56 -9 162 -16 35 -28 65 -27 66 7 7 134 75 138 75 3 0 91 -157 197 -348z
m28256 -1005 c40 -24 128 -75 197 -112 69 -38 127 -70 129 -72 8 -6 -62 -143
-73 -143 -5 0 -41 11 -80 24 -71 24 -109 30 -178 27 -55 -2 -102 -49 -218
-222 l-101 -149 251 -166 c137 -92 252 -165 254 -163 23 24 188 289 196 315
16 48 7 74 -46 133 -25 28 -44 54 -42 58 1 5 20 34 41 65 l39 57 248 -166 249
-165 -45 -68 -45 -68 -67 29 c-122 52 -132 46 -277 -165 l-95 -139 207 -139
c115 -76 227 -145 250 -154 40 -16 43 -15 75 4 18 11 57 52 87 90 l54 69 64
-44 c34 -25 63 -47 63 -49 0 -3 -100 -154 -222 -336 -123 -182 -226 -336 -230
-341 -7 -11 -141 71 -136 82 2 3 20 39 41 78 47 91 47 116 2 159 -32 30 -856
588 -999 676 -84 52 -112 51 -167 -9 -25 -27 -52 -59 -61 -72 l-17 -24 -66 43
c-39 25 -64 48 -61 56 11 29 694 1044 702 1044 3 0 38 -20 77 -43z m-27575
-65 c27 -38 29 -46 19 -72 -8 -21 -8 -38 -1 -57 6 -16 158 -241 338 -501 330
-476 343 -492 401 -492 17 0 32 -14 55 -51 19 -28 29 -54 24 -58 -5 -4 -47
-37 -94 -71 -47 -35 -140 -108 -208 -163 -137 -110 -124 -108 -192 -27 l-39
47 59 69 c67 77 110 154 110 196 0 43 -21 85 -100 204 -40 60 -74 111 -76 112
-6 8 -1051 -722 -1086 -758 -22 -22 -38 -49 -38 -62 0 -26 35 -105 74 -166 15
-24 25 -46 22 -51 -3 -4 -32 -26 -64 -49 l-60 -42 -243 352 c-134 194 -245
357 -246 362 -2 6 26 30 61 53 l64 42 47 -60 c56 -71 103 -109 137 -109 13 0
49 15 79 33 48 30 1033 709 1052 727 11 9 -131 207 -182 253 -36 32 -47 37
-91 37 -30 0 -93 -14 -155 -34 l-105 -34 -46 64 c-26 36 -45 66 -43 68 2 2 96
58 208 125 112 67 220 133 240 147 19 13 38 20 42 16 3 -4 20 -26 37 -50z
m1073 -1698 c133 -39 267 -137 365 -267 26 -34 71 -112 102 -174 64 -132 78
-94 -113 -301 l-129 -140 -26 18 c-14 11 -42 34 -62 52 l-38 33 45 70 c112
175 111 319 -1 427 -50 48 -100 68 -166 68 -123 -1 -226 -97 -243 -226 -8 -57
10 -173 55 -354 37 -150 50 -317 30 -401 -41 -174 -196 -328 -370 -368 -60
-14 -166 -14 -232 0 -219 46 -443 255 -537 498 -51 131 -50 146 2 217 90 118
258 304 270 297 7 -3 37 -24 69 -45 l56 -38 -47 -79 c-68 -112 -96 -205 -96
-311 1 -101 21 -155 86 -225 60 -65 110 -89 184 -89 66 1 121 23 179 75 94 82
104 202 42 479 -60 267 -59 394 4 528 54 117 195 232 316 261 64 15 196 12
255 -5z m25525 -258 c653 -236 936 -336 999 -352 105 -28 156 -14 242 68 l31
30 56 -48 c31 -26 56 -51 56 -55 0 -12 -471 -564 -484 -566 -6 -2 -35 19 -64
45 l-53 47 35 59 c20 33 36 70 36 82 0 23 -27 34 -322 139 l-77 27 -25 -29
c-13 -16 -86 -101 -160 -189 -75 -87 -136 -164 -136 -170 0 -14 161 -290 192
-327 30 -38 47 -33 122 33 32 28 60 50 64 50 4 0 32 -22 62 -48 l54 -49 -19
-24 c-78 -98 -408 -479 -414 -479 -5 0 -33 21 -64 46 l-54 46 40 70 c49 84 52
134 16 218 -13 30 -183 363 -377 740 l-354 684 33 68 c18 37 38 68 45 68 6 0
240 -83 520 -184z m-1205 -817 l41 -49 -52 -57 c-29 -32 -59 -72 -67 -90 -15
-30 -15 -34 8 -71 25 -42 782 -876 844 -931 57 -50 83 -43 233 66 15 10 25 3
69 -46 l52 -58 -302 -276 -302 -276 -43 42 c-70 68 -71 72 -20 126 95 99 105
127 66 185 -13 18 -103 122 -202 229 l-178 197 -27 -23 c-15 -12 -152 -137
-305 -276 l-277 -254 39 -41 c21 -23 107 -116 190 -207 152 -167 187 -199 217
-199 23 0 72 27 134 73 l54 40 53 -59 52 -59 -51 -46 c-29 -26 -162 -148 -297
-272 l-245 -225 -23 22 c-13 11 -37 38 -54 59 l-30 37 47 52 c84 93 90 124 37
190 -88 111 -827 908 -857 924 -34 18 -36 18 -72 -1 -20 -11 -59 -37 -85 -57
-26 -21 -51 -38 -55 -38 -5 0 -31 26 -59 58 l-50 57 294 269 294 268 35 -33
c19 -19 43 -46 54 -60 l18 -26 -55 -64 c-30 -35 -57 -73 -60 -85 -9 -36 19
-75 182 -254 l156 -171 41 38 c23 21 160 146 304 277 l262 239 -158 171 c-87
94 -172 179 -190 190 -39 22 -64 14 -152 -50 l-58 -43 -55 57 -55 57 22 22
c12 12 146 134 297 272 213 194 277 248 287 239 8 -6 32 -33 54 -59z m-23410
-84 c285 -50 567 -228 781 -495 48 -60 188 -269 188 -281 0 -10 -189 -275
-247 -346 l-34 -43 -57 36 c-31 20 -61 40 -66 45 -5 5 4 34 22 71 104 213 77
380 -91 552 -135 138 -257 196 -427 203 -121 6 -201 -9 -306 -57 -218 -99
-416 -334 -480 -571 -21 -78 -24 -232 -5 -309 51 -212 232 -406 420 -450 94
-22 304 5 433 55 15 6 24 -6 48 -61 17 -37 29 -72 27 -78 -10 -25 -360 -199
-427 -213 -22 -4 -48 8 -129 58 -296 187 -474 364 -588 584 -179 347 -129 745
130 1022 218 232 505 331 808 278z m1849 -1421 c0 -8 -90 -124 -97 -124 -2 0
-18 9 -33 20 -16 12 -54 32 -85 46 -54 25 -56 25 -83 8 -15 -10 -31 -23 -37
-29 -32 -38 -275 -363 -275 -368 0 -11 640 -489 650 -485 14 5 258 333 281
378 13 25 19 49 15 64 -3 13 -35 51 -71 85 l-66 61 47 65 c29 40 52 62 58 57
6 -5 151 -113 323 -241 l312 -232 -45 -62 c-25 -34 -48 -64 -50 -66 -2 -2 -21
7 -42 21 -119 79 -162 85 -214 31 -38 -41 -698 -924 -736 -984 -37 -61 -31
-82 49 -164 l71 -74 -47 -61 -47 -61 -31 24 c-18 13 -166 124 -329 246 l-298
223 30 42 c17 22 38 51 48 62 l17 22 85 -49 c46 -27 96 -49 110 -49 36 0 81
49 258 287 l151 201 -94 71 c-52 39 -200 150 -329 246 l-235 174 -161 -215
c-175 -236 -205 -283 -194 -317 4 -12 38 -52 75 -88 l69 -65 -46 -62 c-28 -38
-50 -59 -57 -55 -18 11 -610 454 -625 467 -10 10 -3 25 34 74 l46 63 27 -17
c52 -35 134 -74 153 -74 10 0 28 5 39 11 20 10 697 908 758 1005 48 75 43 95
-40 174 l-71 68 48 64 49 65 317 -239 c175 -131 318 -241 318 -244z m19930
-149 c78 -82 149 -161 159 -175 l19 -25 -53 -59 -52 -59 -59 46 c-189 148
-363 149 -584 2 -172 -114 -267 -279 -277 -480 -11 -217 70 -413 246 -598 214
-224 483 -298 738 -202 139 53 266 160 316 268 42 90 50 146 45 318 l-5 157
56 11 c31 6 65 14 77 17 18 5 24 -5 52 -93 39 -121 92 -338 92 -375 0 -21 -29
-56 -137 -165 -168 -169 -281 -255 -438 -333 -336 -168 -676 -156 -955 33 -67
45 -176 154 -226 224 -57 79 -119 212 -145 310 -44 164 -24 389 50 561 107
250 337 486 616 631 85 44 306 140 317 137 3 0 70 -68 148 -151z m-1566 -1062
l130 -176 -40 -34 c-82 -72 -77 -71 -136 -17 -114 102 -229 155 -304 139 -223
-49 -302 -254 -159 -413 74 -82 99 -88 411 -84 209 2 277 -1 340 -13 144 -30
244 -94 319 -204 106 -158 117 -350 28 -526 -109 -215 -378 -383 -660 -410
l-70 -7 -70 80 c-38 44 -107 128 -152 187 l-84 106 58 59 59 59 50 -47 c210
-198 436 -230 596 -86 21 19 46 55 56 79 34 90 2 217 -73 290 -64 62 -95 67
-423 75 -237 6 -306 11 -350 25 -176 55 -301 182 -345 352 -63 241 82 501 355
638 88 44 267 102 320 103 8 1 73 -78 144 -175z m-16419 -22 c47 -15 50 -18
47 -46 -2 -17 -28 -183 -58 -370 -133 -829 -185 -1190 -182 -1257 3 -63 6 -70
43 -108 22 -23 55 -50 73 -62 l33 -20 -37 -67 c-20 -36 -38 -68 -40 -70 -3 -3
-641 354 -654 366 -8 7 63 133 75 133 6 0 36 -9 68 -20 87 -31 94 -29 106 33
18 86 62 369 59 372 -8 8 -432 245 -438 245 -11 0 -272 -233 -294 -263 l-21
-28 45 -42 c25 -23 59 -52 75 -63 l30 -22 -30 -56 c-16 -32 -35 -62 -42 -67
-8 -7 -96 38 -297 151 -157 89 -286 166 -286 171 0 12 60 118 70 124 5 3 30
-3 57 -14 93 -36 127 -37 196 -2 37 19 311 228 682 520 531 419 624 488 645
484 14 -4 48 -13 75 -22z m15348 -385 c44 -96 45 -91 -23 -127 -34 -18 -70
-44 -82 -58 -44 -57 -21 -122 341 -944 132 -301 241 -550 241 -552 0 -3 -30
-18 -66 -35 l-66 -30 -756 360 c-415 198 -757 358 -759 356 -7 -6 244 -571
321 -724 42 -82 88 -162 103 -177 26 -25 33 -27 83 -22 30 3 81 14 113 25 l58
19 25 -56 c43 -96 67 -78 -295 -237 -179 -79 -326 -143 -327 -141 -6 6 -64
141 -62 143 2 1 28 16 58 34 124 72 128 90 67 272 -25 73 -71 192 -102 263
-151 348 -299 678 -319 708 -28 43 -98 77 -156 77 -25 -1 -70 -9 -100 -20 -30
-11 -59 -19 -63 -20 -10 0 -69 130 -65 142 3 9 406 191 423 191 6 0 336 -151
735 -336 399 -184 726 -334 727 -333 5 5 -239 552 -310 695 -40 79 -84 157
-98 173 -35 36 -74 37 -180 2 -46 -16 -83 -23 -88 -18 -17 20 -63 138 -55 141
5 2 151 66 324 143 173 77 318 140 322 140 3 0 18 -24 31 -54z m-13826 -402
c526 -226 574 -249 570 -268 -9 -34 -142 -414 -148 -420 -3 -3 -21 -1 -40 4
-19 5 -52 13 -75 19 l-41 11 15 87 c11 68 11 102 3 147 -12 70 -38 101 -120
144 -104 55 -302 135 -311 126 -5 -5 -60 -129 -123 -275 l-114 -266 158 -67
c86 -36 177 -69 201 -72 38 -5 46 -3 72 22 16 16 40 46 54 67 13 20 28 37 32
37 5 0 38 -13 74 -30 54 -24 65 -32 59 -47 -44 -116 -224 -518 -233 -521 -6
-2 -40 9 -76 24 l-66 28 8 35 c5 20 9 65 9 101 0 64 0 64 -40 91 -40 27 -324
154 -330 147 -1 -1 -47 -106 -101 -233 -60 -141 -99 -247 -102 -276 -4 -43 -2
-48 29 -72 19 -14 64 -42 102 -62 37 -20 67 -40 66 -43 0 -4 -15 -37 -32 -74
l-32 -66 -366 157 c-201 87 -373 160 -382 164 -15 5 -13 14 12 74 16 37 34 69
39 71 6 2 41 -6 77 -17 101 -32 129 -29 160 16 13 21 133 290 265 598 261 611
266 625 213 663 -16 11 -52 31 -80 46 -29 14 -53 32 -53 39 0 21 53 137 62
137 5 0 268 -111 585 -246z m1038 -350 c47 -13 55 -19 65 -50 6 -19 19 -38 28
-43 32 -16 1121 -341 1144 -341 13 0 36 9 51 19 28 18 31 18 85 1 39 -11 56
-22 53 -31 -1 -8 -20 -81 -41 -164 -21 -82 -49 -197 -61 -255 -12 -58 -24
-107 -25 -108 -2 -3 -59 6 -139 23 -19 4 -20 11 -18 117 4 159 -12 202 -88
241 -49 25 -279 102 -284 95 -8 -12 -368 -1226 -372 -1257 -9 -67 1 -85 64
-118 32 -17 79 -38 106 -48 26 -10 47 -23 47 -30 0 -34 -42 -144 -53 -140 -6
2 -178 54 -382 115 -467 140 -435 130 -435 142 0 6 9 41 20 77 l20 67 92 -19
c124 -25 155 -18 185 43 12 25 104 320 205 656 l184 612 -116 33 c-63 18 -147
35 -186 37 -64 4 -73 2 -101 -22 -17 -15 -59 -69 -94 -121 -34 -52 -64 -95
-67 -95 -20 0 -142 46 -142 53 0 5 36 107 81 226 44 119 87 235 95 259 9 23
18 42 21 42 3 0 29 -7 58 -16z m10748 -276 c42 -112 78 -209 79 -217 2 -8 -24
-26 -68 -46 l-72 -33 -46 72 c-25 41 -67 92 -92 116 l-46 43 -67 -6 c-54 -5
-383 -96 -397 -110 -4 -3 154 -535 162 -545 4 -6 246 70 306 96 71 30 83 55
74 151 l-7 69 70 21 c38 11 73 21 78 21 8 0 174 -533 173 -557 0 -10 -114 -53
-141 -53 -5 0 -18 19 -30 43 -12 23 -32 57 -46 75 -21 28 -30 32 -72 32 -26 0
-61 -4 -77 -9 -16 -6 -82 -26 -147 -46 -118 -36 -119 -36 -112 -63 29 -123
151 -483 172 -511 25 -33 27 -33 82 -27 31 3 101 19 156 36 187 56 266 96 297
147 24 41 49 146 56 238 l7 80 78 14 c43 7 80 11 83 9 7 -8 33 -296 36 -406
l3 -103 -645 -199 c-355 -110 -650 -199 -657 -200 -14 0 -57 135 -48 150 3 6
11 10 17 10 7 0 49 18 95 40 90 44 100 58 90 129 -5 38 -312 1050 -349 1151
-32 85 -42 93 -113 87 -33 -4 -79 -9 -101 -13 l-42 -6 -22 66 c-12 36 -20 71
-18 78 4 11 1164 375 1204 377 18 1 31 -24 97 -201z m-1624 -267 c20 -5 30
-22 52 -86 15 -44 47 -137 71 -207 l45 -126 -76 -30 -76 -29 -37 67 c-48 87
-127 173 -184 201 -38 18 -58 21 -122 17 -185 -11 -279 -140 -227 -314 33
-112 120 -166 375 -234 317 -85 433 -152 524 -303 61 -102 81 -245 51 -361
-27 -104 -64 -166 -150 -251 -91 -92 -193 -149 -330 -186 -108 -29 -308 -32
-411 -5 l-72 18 -30 66 c-34 74 -79 187 -122 305 l-29 77 69 35 c38 19 73 35
77 35 5 0 24 -30 43 -67 51 -97 156 -205 238 -245 60 -30 76 -33 152 -33 178
1 274 87 273 245 0 84 -32 159 -86 205 -52 45 -146 83 -340 139 -179 52 -276
96 -358 161 -141 112 -205 296 -165 477 48 216 249 383 514 428 58 9 298 11
331 1z m-6879 -78 c88 -18 200 -61 285 -108 l60 -33 -13 -199 c-7 -109 -15
-208 -18 -220 -4 -22 -9 -23 -83 -23 l-78 0 -12 91 c-27 208 -93 299 -241 330
-158 33 -284 -73 -284 -240 -1 -116 43 -174 259 -346 237 -188 331 -312 355
-464 38 -249 -135 -494 -401 -567 -93 -26 -278 -24 -384 5 -97 26 -225 86
-307 143 l-61 43 6 234 c4 129 10 237 14 241 4 4 42 10 84 14 l77 7 7 -63 c19
-169 75 -298 162 -378 63 -58 130 -83 223 -83 111 0 189 58 224 165 51 158 -4
257 -254 458 -247 199 -334 335 -333 520 3 217 153 412 363 470 112 31 212 32
350 3z m5562 -157 c43 -7 80 -15 83 -18 4 -4 115 -413 115 -423 0 -4 -151 -48
-154 -44 -2 2 -25 46 -51 97 -83 161 -161 218 -293 210 -88 -5 -155 -38 -197
-97 -25 -36 -30 -54 -33 -117 -9 -172 64 -242 368 -349 74 -26 167 -62 206
-81 145 -68 252 -171 294 -283 118 -308 -76 -629 -434 -721 -161 -41 -342 -34
-495 18 -53 18 -55 20 -79 83 -29 77 -112 360 -112 381 0 13 138 84 146 76 1
-2 13 -29 27 -60 57 -127 162 -249 257 -296 47 -23 68 -27 140 -27 175 0 270
86 270 245 0 166 -78 236 -393 353 -184 69 -264 114 -346 191 -106 102 -151
205 -151 346 0 171 79 315 229 414 122 82 240 114 416 115 61 0 145 -6 187
-13z m-4121 -176 c-2 -41 -5 -78 -7 -81 -2 -3 -38 -9 -80 -12 -41 -4 -80 -9
-85 -13 -22 -13 -22 -12 188 -912 15 -62 30 -109 34 -105 8 9 166 388 351 845
l120 297 72 -6 c39 -3 74 -8 77 -12 4 -3 39 -121 78 -261 40 -140 118 -411
174 -603 89 -304 103 -345 113 -325 20 40 210 557 268 729 62 187 70 218 57
238 -5 8 -49 24 -98 36 l-88 22 3 74 c2 41 5 76 7 79 2 3 149 -4 327 -17 178
-12 329 -22 336 -22 13 -1 17 -75 6 -129 -6 -28 -10 -30 -63 -37 -137 -16
-157 -32 -232 -190 -79 -169 -288 -686 -527 -1310 l-30 -80 -74 3 c-40 2 -76
7 -80 11 -6 5 -269 900 -336 1144 -9 31 -19 57 -22 57 -3 0 -30 -62 -61 -138
-31 -75 -139 -334 -240 -576 l-184 -438 -75 7 c-41 3 -76 8 -78 10 -2 2 -37
140 -77 307 -129 536 -305 1219 -326 1263 -26 55 -53 73 -140 93 -77 18 -76
16 -63 127 l6 50 377 -25 376 -25 -4 -75z m2983 -25 c4 -42 5 -79 2 -84 -3 -4
-32 -11 -64 -14 -32 -4 -76 -12 -98 -19 -73 -24 -71 6 -31 -702 19 -347 40
-643 46 -658 15 -38 41 -49 140 -55 l88 -6 7 -75 c4 -41 5 -76 3 -78 -2 -2
-184 -14 -404 -27 l-401 -22 -6 44 c-3 24 -6 60 -6 80 l0 37 81 12 c104 15
131 28 142 72 9 36 -45 1112 -63 1244 -13 98 -25 107 -143 114 l-95 5 -6 45
c-3 24 -6 61 -6 81 l0 37 358 21 c196 11 378 21 403 22 l46 1 7 -75z" />
        <path
            d="M20947 37182 c-67 -141 -104 -228 -97 -232 11 -7 330 -33 336 -28 3
3 -125 481 -129 484 -1 1 -51 -100 -110 -224z" />
        <path
            d="M27852 35688 c-25 -44 -232 -431 -271 -505 -10 -19 -7 -24 34 -47
139 -77 245 -94 347 -56 118 44 228 216 228 355 0 106 -71 207 -189 269 -96
50 -113 48 -149 -16z" />
        <path
            d="M29593 34095 l-213 -142 136 -96 c74 -54 140 -98 146 -100 8 -1 152
474 145 479 -1 1 -98 -62 -214 -141z" />
        <path
            d="M9172 33940 c3 -8 33 -114 68 -235 34 -121 65 -225 69 -232 4 -7 55
24 143 90 76 56 137 105 138 108 0 6 -113 82 -400 268 -20 14 -23 14 -18 1z" />
        <path id="lion"
            d="M16835 33340 c-165 -43 -372 -97 -460 -120 -451 -118 -994 -327
-1385 -532 -1041 -547 -1819 -1332 -2319 -2339 -292 -588 -485 -1245 -547
-1867 -8 -86 -18 -179 -20 -207 -5 -49 -7 -51 -72 -95 -37 -25 -132 -94 -212
-154 -844 -633 -1224 -1230 -1524 -2394 l-44 -172 -99 -113 c-246 -281 -422
-467 -752 -798 -468 -467 -739 -713 -1416 -1282 -793 -667 -909 -770 -1186
-1046 -223 -224 -331 -345 -462 -520 -246 -327 -319 -674 -288 -1371 14 -335
45 -474 156 -705 75 -155 159 -283 375 -570 l188 -250 -5 -95 c-6 -114 11
-429 32 -595 57 -435 189 -815 380 -1090 58 -85 64 -99 75 -171 160 -1070 803
-2199 1821 -3200 157 -154 949 -856 958 -848 1 1 -58 201 -134 444 -75 243
-145 480 -155 528 -71 318 -38 694 90 1026 l11 29 32 -31 c18 -17 99 -85 182
-151 140 -113 150 -120 157 -99 3 13 32 113 62 223 66 237 122 359 221 483
290 360 1020 678 1775 774 163 20 631 17 800 -5 225 -31 430 -73 430 -89 0 -6
-40 -53 -90 -104 -523 -547 -917 -1263 -1095 -1988 -46 -190 -82 -385 -107
-596 -18 -148 -22 -231 -22 -535 -1 -377 5 -470 50 -784 102 -713 365 -1516
703 -2142 74 -136 512 -851 519 -845 1 2 25 192 52 422 51 427 66 527 101 669
55 221 170 513 283 713 178 316 440 647 706 889 l115 105 3 -34 c7 -91 47
-330 77 -468 293 -1318 1257 -2508 2778 -3428 393 -239 844 -466 1202 -606
140 -54 549 -204 552 -202 1 1 -33 138 -77 305 -100 382 -120 498 -127 716
-14 465 128 871 432 1235 82 98 278 288 385 373 189 151 662 438 685 415 3 -3
-2 -79 -11 -169 -21 -203 -24 -726 -5 -904 75 -731 284 -1302 657 -1798 107
-142 252 -299 362 -390 59 -50 288 -207 378 -260 7 -4 50 66 114 186 351 654
655 1076 1071 1482 276 269 463 417 1025 810 805 563 1153 862 1565 1340 626
727 1009 1669 1089 2675 6 74 13 163 16 197 l6 62 68 -79 c320 -372 626 -860
810 -1295 192 -452 311 -941 326 -1340 5 -122 -3 -272 -40 -803 -26 -360 -46
-658 -44 -662 5 -14 698 1366 783 1560 369 835 577 1657 635 2508 13 194 13
642 0 832 -41 597 -166 1190 -359 1709 l-50 134 75 -74 c88 -87 248 -274 344
-403 304 -410 578 -930 787 -1496 94 -254 157 -483 263 -953 57 -251 107 -454
110 -450 10 11 356 915 424 1107 264 740 431 1517 498 2301 17 200 17 933 0
1125 -48 546 -133 996 -277 1475 -265 878 -727 1719 -1322 2408 -57 65 -87
107 -77 107 46 0 292 -76 444 -138 510 -207 1064 -602 1575 -1124 198 -202
244 -255 544 -635 140 -178 255 -322 256 -320 3 3 -22 919 -30 1082 -120 2684
-900 4758 -2306 6130 -476 465 -969 811 -1573 1105 -353 173 -695 301 -1041
391 -88 22 -162 43 -164 44 -1 2 28 19 66 39 152 76 377 138 623 173 171 23
595 23 805 -1 333 -38 467 -65 965 -200 173 -47 316 -83 318 -81 6 5 -538 820
-647 968 -484 661 -1030 1218 -1634 1668 -980 731 -2077 1149 -3317 1266 -232
21 -889 25 -1110 5 -142 -13 -441 -47 -510 -58 -79 -13 265 214 522 345 310
157 510 228 1033 362 214 56 393 104 397 107 6 7 -660 290 -944 403 -2367 933
-4854 857 -7023 -216 -245 -121 -540 -286 -720 -403 -60 -39 -111 -69 -113
-67 -14 14 116 339 207 518 135 265 161 306 683 1040 18 26 18 27 1 26 -10 -1
-153 -36 -318 -79z m1333 -4794 c713 -275 1214 -944 1452 -1938 50 -210 103
-549 112 -712 l2 -49 -89 -55 c-276 -170 -803 -500 -1025 -642 -209 -134
-1127 -735 -1138 -745 -2 -2 17 -76 42 -166 116 -427 165 -726 173 -1069 4
-201 2 -264 -17 -430 -60 -536 3 -981 201 -1424 199 -444 552 -895 972 -1241
53 -43 93 -82 89 -86 -4 -4 -59 -12 -123 -18 -556 -53 -1061 91 -1474 419
-148 119 -268 253 -804 903 -294 356 -536 646 -537 644 -4 -4 579 -1447 640
-1587 49 -112 169 -341 252 -482 269 -454 614 -886 956 -1196 302 -273 548
-446 882 -618 l158 -81 -118 -42 c-802 -285 -1585 -313 -2284 -81 -231 76
-317 115 -760 344 -206 106 -376 192 -378 191 -4 -4 274 -599 340 -727 63
-123 201 -333 307 -468 118 -149 382 -408 526 -516 201 -151 419 -274 627
-355 49 -19 88 -36 88 -39 0 -3 -64 -25 -142 -47 -393 -115 -820 -183 -1150
-183 -425 0 -1020 67 -1643 185 -144 27 -201 43 -240 64 -27 16 -56 27 -62 24
-7 -2 -104 23 -215 56 -783 233 -1603 223 -2387 -30 -345 -112 -754 -308 -956
-458 -76 -57 -76 -57 -51 11 77 208 237 660 235 663 -9 8 -907 -959 -970
-1045 -232 -312 -381 -684 -435 -1080 -7 -58 -14 -127 -14 -153 0 -27 -4 -47
-9 -45 -14 5 -143 150 -275 308 -431 516 -785 1100 -978 1615 -44 118 -98 277
-98 291 0 8 37 0 108 -23 208 -66 457 -104 692 -107 l125 -1 145 61 c272 115
560 205 889 279 308 69 470 89 811 105 335 15 1140 87 1156 103 7 7 24 109 19
117 -10 16 -215 99 -320 129 -219 63 -323 76 -600 75 -233 0 -259 -2 -385 -28
-612 -125 -1048 -279 -1495 -527 -262 -145 -271 -149 -336 -149 -44 0 -83 9
-152 36 -215 84 -423 211 -579 354 -82 75 -208 225 -208 248 0 7 -26 44 -57
80 -197 232 -316 545 -380 997 -13 91 -17 198 -18 441 l-1 320 -69 100 c-37
54 -77 111 -88 126 -18 25 -19 32 -8 70 7 24 29 74 49 113 56 107 147 190 378
345 240 162 337 253 401 375 22 44 48 105 57 135 23 75 34 225 27 343 l-6 98
-75 -56 c-92 -71 -177 -114 -301 -153 -173 -56 -460 -101 -553 -89 -23 4 -90
27 -151 52 -136 57 -208 75 -307 75 l-77 0 -7 46 c-10 67 4 290 26 419 22 127
51 229 87 300 63 123 247 341 512 605 244 243 441 418 1016 901 830 698 1201
1034 1690 1530 249 253 412 428 613 657 258 296 225 240 282 473 218 879 458
1357 908 1806 173 172 421 374 679 552 l62 43 173 14 c408 33 1031 35 1284 4
270 -33 878 -148 1187 -225 l179 -45 81 64 c556 431 1432 750 2489 906 251 37
261 37 366 -4z" />
        <path id="lion2"
            d="M17500 27934 c-431 -50 -878 -190 -1350 -421 l-215 -106 84 -38 c46
-22 89 -39 96 -39 7 0 73 24 146 54 439 175 826 273 1274 319 34 4 61 -6 191
-73 646 -332 1060 -732 1165 -1126 26 -95 30 -285 8 -348 -14 -38 -18 -40
-159 -100 -475 -203 -940 -455 -1357 -738 l-132 -90 20 -51 c12 -29 22 -54 24
-56 2 -2 46 23 97 56 368 236 941 500 1527 703 l165 57 23 69 c45 133 56 214
50 378 -4 126 -9 166 -31 241 -54 178 -146 341 -290 513 -243 289 -717 606
-1191 797 -24 9 -54 9 -145 -1z" />
        <path  id="lion3"
            d="M11764 25481 c-170 -80 -327 -209 -436 -355 -58 -77 -138 -228 -138
-258 0 -9 19 -22 48 -33 216 -82 398 -177 480 -250 l50 -45 4 -117 c4 -117 11
-148 69 -290 13 -31 12 -32 -85 -145 -240 -277 -448 -489 -611 -624 -19 -15
-19 -15 5 -2 74 43 1437 893 1448 903 29 26 -185 192 -379 295 -206 108 -437
185 -767 256 -20 4 -22 8 -16 47 10 65 53 195 86 262 53 104 127 202 229 300
55 52 98 95 97 95 -2 0 -39 -18 -84 -39z" />
        <path  id="lion4"
            d="M10660 23166 c-316 -97 -578 -284 -785 -561 -97 -129 -120 -166 -278
-430 -305 -510 -497 -725 -883 -985 -65 -44 -115 -80 -112 -80 26 0 206 73
308 126 366 188 588 427 910 979 182 311 264 428 410 579 130 135 281 251 460
353 84 48 78 52 -30 19z" />
        <path
            d="M5185 12173 c-84 -43 -535 -295 -535 -298 0 -2 18 -34 39 -72 55 -95
105 -149 165 -181 44 -23 63 -27 136 -27 77 0 92 3 155 34 80 40 157 108 188
166 17 31 22 58 22 120 0 70 -4 89 -32 148 -61 128 -78 142 -138 110z" />
        <path
            d="M32422 9063 c23 -43 79 -145 124 -226 l81 -148 112 130 c61 72 111
134 111 138 0 4 -78 37 -173 72 -94 35 -200 74 -235 87 l-63 24 43 -77z" />
        <path
            d="M11247 5291 c-98 -82 -183 -153 -188 -158 -6 -6 49 -42 143 -95 84
-48 154 -85 156 -84 3 3 82 461 82 476 0 6 -3 10 -7 9 -5 0 -88 -67 -186 -148z" />
    </g>
</svg>